<?xml version="1.0" encoding="utf-8"?>
<!-- Generator: Adobe Illustrator 21.1.0, SVG Export Plug-In . SVG Version: 6.00 Build 0)  -->
<svg version="1.1" id="Layer_1" xmlns="http://www.w3.org/2000/svg" xmlns:xlink="http://www.w3.org/1999/xlink" x="0px" y="0px"
	 viewBox="0 0 2000 2000" style="enable-background:new 0 0 2000 2000;" xml:space="preserve">
<style type="text/css">
	.st0{fill:#161616;}
</style>
<path d="M653.2,1267.3c109.9,0,217.3,0,327.2,0c0,26.6,0,52,0,77.5c14.5,0,26.3,0,39.8,0c0-26.7,0-51.4,0-77.2
	c109.6,0,217.6,0,327.9,0c0,27,0,52.4,0,77.7c14.5,0,26.6,0,38.8,0c0-40.7,0-80,0-121.6c-61.3,0-121.1,0-183.2,0c0-27.7,0-53,0-78.4
	c-14.4,0-26.4,0-39.7,0c0,26.5,0,51.3,0,77.7c-111,0-219,0-329,0c0-27.2,0-52.6,0-77.6c-14.1,0-26.2,0-40.7,0c0,27.1,0,52.4,0,79.9
	c-62.3,0-122,0-181.5,0c0,41.8,0,81.1,0,119.6c13.8,0,25.9,0,40.4,0C653.2,1318,653.2,1292.7,653.2,1267.3z"/>
<path d="M836.3,776.3c110.8,0,218.7,0,328.6,0c0,27.2,0,52.7,0,77.5c14.1,0,26.1,0,37.8,0c0-41,0-80.2,0-121.5
	c-61.8,0-121.5,0-183.6,0c0-27.4,0-52.7,0-78.5c-13.8,0-25.2,0-38.9,0c0,26.5,0,51.8,0,80c-62.7,0-123,0-184,0
	c0,41.6,0,80.3,0,120.9c14.3,0,25.8,0,40.1,0C836.3,827.7,836.3,801.7,836.3,776.3z"/>
<path class="st0" d="M733.9,1115h160.7c0-60.2-9.5-110.2-60.1-120.2c21.3-8.2,36.5-28.8,36.5-53c0-31.3-25.4-56.8-56.8-56.8
	c-31.3,0-56.8,25.4-56.8,56.8c0,24.2,15.2,44.9,36.5,53C743.4,1004.8,733.9,1054.8,733.9,1115z"/>
<path class="st0" d="M1103.9,1115h160.7c0-60.2-9.5-110.2-60.1-120.2c21.3-8.2,36.5-28.8,36.5-53c0-31.3-25.4-56.8-56.8-56.8
	c-31.3,0-56.8,25.4-56.8,56.8c0,24.2,15.2,44.9,36.5,53C1113.4,1004.8,1103.9,1054.8,1103.9,1115z"/>
<path class="st0" d="M551.4,1610.9h160.7c0-60.2-9.5-110.2-60.1-120.2c21.3-8.2,36.5-28.8,36.5-53c0-31.3-25.4-56.8-56.8-56.8
	c-31.3,0-56.8,25.4-56.8,56.8c0,24.2,15.2,44.9,36.5,53C560.8,1500.7,551.4,1550.7,551.4,1610.9z"/>
<path class="st0" d="M917.4,1610.9h160.7c0-60.2-9.5-110.2-60.1-120.2c21.3-8.2,36.5-28.8,36.5-53c0-31.3-25.4-56.8-56.8-56.8
	c-31.3,0-56.8,25.4-56.8,56.8c0,24.2,15.2,44.9,36.5,53C926.9,1500.7,917.4,1550.7,917.4,1610.9z"/>
<path class="st0" d="M919.4,623.6h160.7c0-60.2-9.5-110.2-60.1-120.2c21.3-8.2,36.5-28.8,36.5-53c0-31.3-25.4-56.8-56.8-56.8
	c-31.3,0-56.8,25.4-56.8,56.8c0,24.2,15.2,44.9,36.5,53C928.9,513.4,919.4,563.4,919.4,623.6z"/>
<path class="st0" d="M1286.6,1610.9h160.7c0-60.2-9.5-110.2-60.1-120.2c21.3-8.2,36.5-28.8,36.5-53c0-31.3-25.4-56.8-56.8-56.8
	s-56.8,25.4-56.8,56.8c0,24.2,15.2,44.9,36.5,53C1296.1,1500.7,1286.6,1550.7,1286.6,1610.9z"/>
</svg>
