<?xml version="1.0" encoding="utf-8"?>
<!-- Generator: Adobe Illustrator 21.1.0, SVG Export Plug-In . SVG Version: 6.00 Build 0)  -->
<svg version="1.1" xmlns="http://www.w3.org/2000/svg" xmlns:xlink="http://www.w3.org/1999/xlink" x="0px" y="0px"
	 viewBox="0 0 2000 2000" style="enable-background:new 0 0 2000 2000;" xml:space="preserve">
<style type="text/css">
	.st0{display:none;}
	.st1{display:inline;}
	.st2{display:inline;fill:#161616;}
	.st3{fill:#161616;}
	.st4{display:inline;fill:none;stroke:#000000;stroke-width:41.0113;stroke-linecap:round;stroke-miterlimit:10;}
	.st5{fill:#FFFFFF;}
	.st6{display:inline;fill:none;stroke:#000000;stroke-width:76.7992;stroke-linecap:round;stroke-miterlimit:10;}
	.st7{fill:none;stroke:#000000;stroke-width:76.7992;stroke-linecap:round;stroke-miterlimit:10;}
</style>
<g id="Layer_1" class="st0">
	<path class="st1" d="M653.2,1267.3c109.9,0,217.3,0,327.2,0c0,26.6,0,52,0,77.5c14.5,0,26.3,0,39.8,0c0-26.7,0-51.4,0-77.2
		c109.6,0,217.6,0,327.9,0c0,27,0,52.4,0,77.7c14.5,0,26.6,0,38.8,0c0-40.7,0-80,0-121.6c-61.3,0-121.1,0-183.2,0
		c0-27.7,0-53,0-78.4c-14.4,0-26.4,0-39.7,0c0,26.5,0,51.3,0,77.7c-111,0-219,0-329,0c0-27.2,0-52.6,0-77.6c-14.1,0-26.2,0-40.7,0
		c0,27.1,0,52.4,0,79.9c-62.3,0-122,0-181.5,0c0,41.8,0,81.1,0,119.6c13.8,0,25.9,0,40.4,0C653.2,1318,653.2,1292.7,653.2,1267.3z"
		/>
	<path class="st1" d="M836.3,776.3c110.8,0,218.7,0,328.6,0c0,27.2,0,52.7,0,77.5c14.1,0,26.1,0,37.8,0c0-41,0-80.2,0-121.5
		c-61.8,0-121.5,0-183.6,0c0-27.4,0-52.7,0-78.5c-13.8,0-25.2,0-38.9,0c0,26.5,0,51.8,0,80c-62.7,0-123,0-184,0
		c0,41.6,0,80.3,0,120.9c14.3,0,25.8,0,40.1,0C836.3,827.7,836.3,801.7,836.3,776.3z"/>
	<path class="st2" d="M733.9,1115h160.7c0-60.2-9.5-110.2-60.1-120.2c21.3-8.2,36.5-28.8,36.5-53c0-31.3-25.4-56.8-56.8-56.8
		c-31.3,0-56.8,25.4-56.8,56.8c0,24.2,15.2,44.9,36.5,53C743.4,1004.8,733.9,1054.8,733.9,1115z"/>
	<path class="st2" d="M1103.9,1115h160.7c0-60.2-9.5-110.2-60.1-120.2c21.3-8.2,36.5-28.8,36.5-53c0-31.3-25.4-56.8-56.8-56.8
		c-31.3,0-56.8,25.4-56.8,56.8c0,24.2,15.2,44.9,36.5,53C1113.4,1004.8,1103.9,1054.8,1103.9,1115z"/>
	<path class="st2" d="M551.4,1610.9h160.7c0-60.2-9.5-110.2-60.1-120.2c21.3-8.2,36.5-28.8,36.5-53c0-31.3-25.4-56.8-56.8-56.8
		c-31.3,0-56.8,25.4-56.8,56.8c0,24.2,15.2,44.9,36.5,53C560.8,1500.7,551.4,1550.7,551.4,1610.9z"/>
	<path class="st2" d="M917.4,1610.9h160.7c0-60.2-9.5-110.2-60.1-120.2c21.3-8.2,36.5-28.8,36.5-53c0-31.3-25.4-56.8-56.8-56.8
		c-31.3,0-56.8,25.4-56.8,56.8c0,24.2,15.2,44.9,36.5,53C926.9,1500.7,917.4,1550.7,917.4,1610.9z"/>
	<path class="st2" d="M919.4,623.6h160.7c0-60.2-9.5-110.2-60.1-120.2c21.3-8.2,36.5-28.8,36.5-53c0-31.3-25.4-56.8-56.8-56.8
		c-31.3,0-56.8,25.4-56.8,56.8c0,24.2,15.2,44.9,36.5,53C928.9,513.4,919.4,563.4,919.4,623.6z"/>
	<path class="st2" d="M1286.6,1610.9h160.7c0-60.2-9.5-110.2-60.1-120.2c21.3-8.2,36.5-28.8,36.5-53c0-31.3-25.4-56.8-56.8-56.8
		s-56.8,25.4-56.8,56.8c0,24.2,15.2,44.9,36.5,53C1296.1,1500.7,1286.6,1550.7,1286.6,1610.9z"/>
	<path class="st2" d="M-793.3,973.3h288.5c0-108.1-17-197.9-107.9-215.9c38.3-14.6,65.5-51.7,65.5-95.2
		c0-56.3-45.6-101.9-101.9-101.9c-56.3,0-101.9,45.6-101.9,101.9c0,43.5,27.2,80.6,65.5,95.2C-776.3,775.4-793.3,865.2-793.3,973.3z
		"/>
	<path class="st2" d="M-793.3,1530.2h288.5c0-108.1-17-197.9-107.9-215.9h-72.7C-776.3,1332.4-793.3,1422.2-793.3,1530.2z"/>
	<circle class="st2" cx="-649.1" cy="1221.7" r="99.8"/>
	<g class="st1">
		<path class="st3" d="M-1310.4,1208.4h320c0-119.9-18.9-219.5-119.7-239.4h-80.6C-1291.5,988.9-1310.4,1088.5-1310.4,1208.4z"/>
		<path class="st3" d="M-1150.3,789.6c-37.8,0-63.3,5.8-96.7,22.8c-8.9,15.9-13.9,34.3-13.9,53.8c0,61.1,49.5,110.7,110.7,110.7
			s110.7-49.5,110.7-110.7c0-19.5-5.1-37.9-13.9-53.8C-1088,794.6-1119,789.6-1150.3,789.6z"/>
		<g>
			<path class="st3" d="M-976.1,686l-165.5-96.1c-6.8-3.9-17.8-3.9-24.5,0l-165.6,96.1c-6.8,3.9-6.8,10.3,0,14.2l62.5,36.3
				c0.8-6.9,1.4-12.2,2.9-16.5c0.4-0.9,0.6-1.8,1.5-3.1c7.2-15.1,22.2-26.5,41.2-34.6c19.7-8.3,44.2-13.1,70.7-13.1
				c27.8,0,53.4,5.3,73.5,14.3c19.7,9,35,21.6,40.5,38.5c0.7,1.5,0.5,2,0.8,2.9c0.2,1.1,0.3,2.1,0.5,3.3c0.2,2,0.4,4.5,0.6,7.3
				l60.7-35.3C-969.3,696.3-969.3,689.9-976.1,686z"/>
			<path class="st3" d="M-1295.6,785.8c0,4.1-3.3,7.4-7.4,7.4l0,0c-4.1,0-7.4-3.3-7.4-7.4v-68.7c0-4.1,3.3-7.4,7.4-7.4l0,0
				c4.1,0,7.4,3.3,7.4,7.4V785.8z"/>
			<path class="st3" d="M-1286,824.7c0,7.5,0.7,13.6-6.8,13.6h-20.5c-7.5,0-6.8-6.1-6.8-13.6l3.4-37c0-7.5,2.7-13.6,10.2-13.6h6.8
				c7.5,0,10.2,6.1,10.2,13.6L-1286,824.7z"/>
			<path class="st3" d="M-1045.8,734.2c-8-26.6-52.2-47-105.5-47c-50.9,0-93.5,18.6-104.2,43.5c-4.3,3.2-7.1,48.1-7.1,48.1
				c0,9.7,9.1,22.2,18.2,17.5c0.1,0,0.1-0.1,0.2-0.1c31.8-16.2,55.9-21.6,91.8-21.6c29.8,0,59.1,4.7,91.8,21.6
				c0.1,0,0.1,0.1,0.2,0.1c8.9,4.6,18.2-7.8,18.2-17.5C-1042.3,778.8-1043.6,737.1-1045.8,734.2z"/>
		</g>
	</g>
</g>
<g id="Layer_3" class="st0">
	<path class="st2" d="M779.4,837.1h237.5c0-89-14-162.9-88.8-177.7c31.5-12,54-42.6,54-78.4c0-46.3-37.5-83.9-83.9-83.9
		s-83.9,37.5-83.9,83.9c0,35.8,22.4,66.3,54,78.4C793.4,674.2,779.4,748.2,779.4,837.1z"/>
	<g class="st1">
		<path d="M1212.1,471.6l229.3,231v679.8H726.6V471.6H1212.1 M1244,394.9H649.9v1064.2h868.3V671L1244,394.9L1244,394.9z"/>
	</g>
	<g class="st1">
		<polygon points="1491.9,699.5 1217.7,423.4 1217.7,699.5 		"/>
	</g>
	<line class="st4" x1="789.4" y1="957.5" x2="1335.2" y2="957.5"/>
	<line class="st4" x1="789.4" y1="1100.8" x2="1335.2" y2="1100.8"/>
	<line class="st4" x1="789.4" y1="1244.1" x2="1192.7" y2="1244.1"/>
	<line class="st4" x1="1090.5" y1="814.2" x2="1331.6" y2="814.2"/>
	<g class="st1">
		<g>
			<path class="st5" d="M1304.4,1278l10.8,10c34.1,31.5,87.2,29.4,118.7-4.7L1731.4,961c6.9-7.5,11.9-16,15.6-24.8
				c-31.5,21.2-74.5,19.1-103.6-7.8l-10.8-10c-26.6-24.6-33.5-62.1-20.3-93.8c-5.4,3.6-10.4,7.7-14.9,12.6l-297.6,322.3
				C1268.3,1193.5,1270.4,1246.6,1304.4,1278z"/>
		</g>
		<path class="st3" d="M1759.4,805.9l-11.1-10.2c-35-32.3-89.4-30.1-121.6,4.8l-304.9,330.2c-7,7.7-12.2,16.4-16,25.5
			c32.3-21.7,76.4-19.5,106.2,8l11.1,10.2c27.3,25.2,34.3,63.7,20.9,96.1c5.5-3.7,10.7-7.9,15.3-12.9l304.9-330.2
			C1796.5,892.5,1794.3,838.1,1759.4,805.9z"/>
		<path class="st3" d="M1384,1200.3c32,29.9,33,80.9,2.2,114c-30.9,33.1-149.5,51.6-149.5,51.6s2.5-126.7,33.4-159.9
			C1300.9,1173,1351.8,1170.4,1384,1200.3z"/>
	</g>
</g>
<g id="Layer_2" class="st0">
	<polyline class="st6" points="649.9,547.4 486.3,547.4 486.3,1612.9 1355.7,1612.9 1355.7,1459.1 	"/>
	<g class="st1">
		<path d="M1212.8,470.4l229.6,231.3v680.6H726.7V470.4H1212.8 M1244.8,393.6H649.9v1065.5h869.3V670.1L1244.8,393.6L1244.8,393.6z"
			/>
	</g>
	<g class="st1">
		<polygon points="1492.9,698.6 1218.4,422.2 1218.4,698.6 		"/>
	</g>
	<g class="st1">
		<g>
			<path class="st3" d="M1026.7,1060.5c50.3-19.2,86-67.9,86-124.9c0-22.8-5.7-44.2-15.7-63c-22.3-13.2-67.7-32-104.7,5
				c-7.2,7.1-10.2,5.8-16,0c-37.6-37.6-97.9-10.3-118,0.4c-8.3,17.4-13,37-13,57.6c0,57,35.7,105.7,86,124.9
				c-119.3,23.6-141.6,141.5-141.6,283.3h378.7C1168.3,1201.9,1146,1084.1,1026.7,1060.5z"/>
			<path class="st3" d="M1118.3,805.3c-10.3-34.3-67.2-60.6-135.9-60.6c-65.6,0-120.5,24-134.3,56c-5.5,4.1-9.1,33.2-9.1,33.2
				c0,12.5,10.5,22.6,23.4,22.6c0,0,2.2-1.4,6.2-3.5c18.4-9.8,73.6-34.8,107.9-0.4c5.3,5.3,8.1,6.5,14.6,0
				c33.8-33.8,75.4-16.6,95.8-4.5c7.7,4.6,12.4,8.4,12.4,8.4c12.9,0,23.4-10.1,23.4-22.6C1122.8,833.9,1121.1,809.1,1118.3,805.3z"
				/>
			<path class="st3" d="M1208,740.5L994.8,616.7c-8.7-5.1-22.9-5.1-31.6,0L749.9,740.5c-8.7,5.1-8.7,13.3,0,18.3l31.5,18.3
				c2-3.6,5.8-6.1,10.3-6.1c6.4,0,11.7,5.2,11.7,11.7v7.2l27.1,15.7c1-8.9,1.9-15.7,3.7-21.2c0.6-1.1,0.8-2.3,2-4
				c9.2-19.4,28.6-34.1,53.1-44.6c25.4-10.7,56.9-16.9,91.1-16.9c35.9,0,68.7,6.8,94.7,18.5c25.4,11.5,45,27.8,52.2,49.5
				c0.9,1.9,0.7,2.6,1.1,3.7c0.3,1.4,0.4,2.7,0.6,4.3c0.3,2.6,0.5,5.8,0.8,9.4l78.2-45.4C1216.8,753.8,1216.8,745.6,1208,740.5z"/>
		</g>
		<path class="st3" d="M818.4,951.6l-5.3-58c0-9.4-2.7-17.4-9.8-20.2v-83.4v-7.2c0-6.4-5.2-11.7-11.7-11.7c-4.4,0-8.3,2.5-10.3,6.1
			c-0.9,1.6-1.4,3.5-1.4,5.5v90.6c-7.1,2.9-9.8,10.8-9.8,20.2l-5.3,58c0,11.8-1.1,21.4,10.7,21.4h32.1
			C819.5,973,818.4,963.4,818.4,951.6z"/>
	</g>
</g>
<g id="Layer_2_copy">
	<polyline class="st7" points="649.9,547.4 486.3,547.4 486.3,1612.9 1355.7,1612.9 1355.7,1459.1 	"/>
	<g>
		<path d="M1212.8,470.4l229.6,231.3v680.6H726.7V470.4H1212.8 M1244.8,393.6H649.9v1065.5h869.3V670.1L1244.8,393.6L1244.8,393.6z"
			/>
	</g>
	<path class="st3" d="M763.5,1339.8h434.3c0-162.7-25.6-297.9-162.5-325c57.7-22,98.7-77.9,98.7-143.3
		c0-84.7-68.7-153.4-153.4-153.4s-153.4,68.7-153.4,153.4c0,65.4,41,121.3,98.7,143.3C789.1,1041.9,763.5,1177.1,763.5,1339.8z"/>
	<g>
		<polygon points="1492.9,698.6 1218.4,422.2 1218.4,698.6 		"/>
	</g>
</g>
</svg>
